<svg width="24" height="24" viewBox="0 0 24 24" fill="none" xmlns="http://www.w3.org/2000/svg">
<path opacity="0.6" d="M19.982 23.9925C17.8971 23.6625 16.1421 22.92 14.4847 21.9676C8.43983 18.4952 3.70746 13.7778 0.865046 7.34298C0.445058 6.3905 0.235064 5.34053 0.047569 4.31306C-0.102427 3.48809 0.0850679 2.72311 0.857546 2.15313C1.60002 1.61314 2.26751 0.975657 2.96499 0.375674C3.56497 -0.141812 4.14995 -0.134311 4.65994 0.458172C5.75491 1.71814 6.86487 2.9706 7.86235 4.30556C8.10234 4.62805 8.08734 5.34803 7.88485 5.73802C7.44236 6.6155 6.82738 7.40297 6.26489 8.21295C5.9424 8.67044 5.9274 9.01543 6.36239 9.44291C9.06231 12.0978 11.7247 14.7903 14.4397 17.4302C14.6572 17.6402 15.2721 17.6852 15.5496 17.5352C16.4121 17.0627 17.2146 16.4777 18.0171 15.9002C18.617 15.4727 19.127 15.5252 19.6745 15.9977C20.8295 17.0027 21.9994 18.0002 23.1844 18.9676C23.8969 19.5526 24.0394 20.1451 23.4019 20.8801C22.8019 21.5776 22.2769 22.35 21.6245 22.98C21.167 23.415 20.537 23.67 19.9895 24L19.982 23.9925Z" fill="black"/>
</svg>
