<svg width="24" height="16" viewBox="0 0 24 16" fill="none" xmlns="http://www.w3.org/2000/svg">
<g opacity="0.6">
<path d="M23.9925 2.34947C23.9925 3.42182 23.9925 4.39669 23.9925 5.37155C23.9925 8.29615 24 11.2132 23.9925 14.1378C23.9925 15.2552 23.4676 15.7651 22.3427 15.7651C15.4662 15.7651 8.59714 15.7651 1.72059 15.7651C0.430773 15.7651 0.00333287 15.3377 0.00333287 14.0553C-0.00416609 10.1859 0.00333287 6.30892 0.00333287 2.28198C0.550757 2.70942 1.04569 3.09187 1.53312 3.47432C4.62269 5.91148 7.70476 8.34864 10.8018 10.7858C11.7242 11.5057 12.2491 11.5057 13.1865 10.7633C16.681 8.00369 20.1755 5.22907 23.67 2.46946C23.715 2.43196 23.7825 2.43196 24 2.35697L23.9925 2.34947Z" fill="black"/>
<path d="M1.57062 0.234863H22.3727C20.3705 1.81714 18.4958 3.29444 16.6285 4.77173C15.2562 5.85908 13.8914 6.96143 12.4891 8.01128C12.2716 8.17626 11.7542 8.24375 11.5742 8.10877C8.27469 5.55162 5.01264 2.95698 1.57062 0.242361V0.234863Z" fill="black"/>
</g>
</svg>
