<svg width="32" height="32" viewBox="0 0 32 32" fill="none" xmlns="http://www.w3.org/2000/svg">
<path d="M26.5 0.00341797C19.49 0.00341797 12.48 0.00341797 5.46 0.00341797C2.13 0.023418 0.01 2.14342 0 5.48342C0 12.4934 0 19.4934 0 26.5034C0 29.8934 2.05 31.9534 5.44 31.9634C8.9 31.9834 12.37 31.9634 15.84 31.9634C19.43 31.9734 23.02 31.9934 26.61 31.9634C29.92 31.9434 31.98 29.8634 31.98 26.5634C31.98 19.5534 31.98 12.5534 31.98 5.54342C31.99 2.08342 29.96 0.013418 26.5 0.00341797ZM21.33 8.97342C17.12 9.72342 17.06 9.80342 17.54 13.9234H21.25C21.07 15.1734 20.95 16.2934 20.71 17.3934C20.65 17.6534 20.17 17.9634 19.85 18.0034C19.11 18.0934 18.35 18.0334 17.39 18.0334V28.0334H13.01V18.0834H9.41V13.9734H12.96C12.96 12.9334 12.96 12.0234 12.96 11.1134C13 7.31342 14.92 5.45342 18.7 5.57342C19.54 5.60342 20.38 5.65342 21.32 5.70342V8.98342L21.33 8.97342Z" fill="black" fill-opacity="0.6"/>
<path d="M17.54 13.9233H21.25C21.07 15.1733 20.95 16.2933 20.71 17.3933C20.65 17.6533 20.17 17.9633 19.85 18.0033C19.11 18.0933 18.35 18.0333 17.39 18.0333V28.0333H13.01V18.0833H9.40997V13.9733H12.96C12.96 12.9333 12.96 12.0233 12.96 11.1133C13 7.31333 14.92 5.45333 18.7 5.57333C19.54 5.60333 20.38 5.65333 21.32 5.70333V8.98333C17.11 9.73333 17.05 9.81333 17.53 13.9333L17.54 13.9233Z" fill="white"/>
</svg>
