<svg width="19" height="24" viewBox="0 0 19 24" fill="none" xmlns="http://www.w3.org/2000/svg">
<g clip-path="url(#clip0_38_97)">
<path d="M4.39003 24C4.03003 23.81 3.88003 23.53 3.90003 23.12C3.93003 22.57 3.90003 22.02 3.90003 21.43C2.58003 21.19 1.54003 20.54 0.810027 19.41C0.330027 18.64 0.110027 17.8 0.140027 16.89C0.190027 15.26 1.16003 13.24 3.91003 12.64V12.09C3.91003 8.39 3.91003 4.69 3.91003 0.98C3.91003 0.84 3.90003 0.69 3.91003 0.55C3.96003 0.2 4.18003 0 4.52003 0C4.86003 0 5.08003 0.2 5.13003 0.54C5.15003 0.68 5.13003 0.82 5.13003 0.97C5.13003 4.67 5.13003 8.37 5.13003 12.08C5.13003 12.27 5.13003 12.45 5.13003 12.63C7.52003 13.3 8.79003 14.74 8.91003 16.88C9.03003 18.98 7.86003 20.4 5.13003 21.46C5.13003 22 5.11003 22.56 5.13003 23.11C5.15003 23.53 5.00003 23.81 4.65003 24H4.37003H4.39003ZM4.53003 20.2C6.27003 20.2 7.71003 18.77 7.69003 17.03C7.68003 15.3 6.22003 13.84 4.51003 13.86C2.80003 13.88 1.38003 15.31 1.37003 17.02C1.37003 18.76 2.79003 20.2 4.53003 20.2Z" fill="black"/>
<path d="M19 7.38C18.92 7.68 18.87 7.99 18.77 8.29C18.19 9.98 16.99 10.95 15.21 11.32C15.21 11.5 15.21 11.69 15.21 11.87C15.21 15.6 15.21 19.33 15.21 23.06C15.21 23.48 15.11 23.8 14.72 23.99H14.44C14.05 23.8 13.95 23.48 13.96 23.06C13.97 19.33 13.96 15.59 13.96 11.86C13.96 11.69 13.96 11.52 13.96 11.32C12.8 11.09 11.84 10.57 11.12 9.65C9.14003 7.1 10.46 3.36 13.6 2.64C13.91 2.57 13.97 2.44 13.96 2.17C13.94 1.68 13.95 1.19 13.96 0.7C13.98 0.28 14.23 0 14.59 0C14.95 0 15.2 0.27 15.21 0.69C15.21 1.21 15.2 1.73 15.22 2.26C15.22 2.38 15.36 2.58 15.47 2.61C17.45 3.12 18.62 4.37 18.94 6.4C18.94 6.44 18.98 6.49 19 6.53C19 6.81 19 7.1 19 7.38ZM17.75 6.96C17.76 5.24 16.35 3.79 14.65 3.78C12.89 3.76 11.46 5.14 11.43 6.89C11.4 8.61 12.83 10.08 14.56 10.11C16.27 10.14 17.74 8.68 17.76 6.96H17.75Z" fill="black"/>
</g>
<defs>
<clipPath id="clip0_38_97">
<rect width="18.86" height="24" fill="white" transform="translate(0.140015)"/>
</clipPath>
</defs>
</svg>
