<svg width="1920" height="272" viewBox="0 0 1920 272" fill="none" xmlns="http://www.w3.org/2000/svg">
<path d="M1920 272C1915.89 271.751 1911.77 271.304 1907.66 271.304C1829.54 271.271 1751.41 271.287 1673.29 271.287C1452.71 271.287 1232.13 271.287 1011.54 271.287C678.268 271.287 344.971 271.287 11.6958 271.287C7.9264 271.287 4.15705 271.287 -0.0215454 271.287V132.247H21.8192C21.8192 135.13 21.8192 137.964 21.8192 140.814C21.8192 168.138 21.733 195.462 21.9915 222.786C21.9915 224.924 24.49 227.045 25.8254 229.183C28.5824 227.907 31.2533 225.736 34.1395 225.521C40.7736 225.023 47.5584 225.189 54.1925 225.736C56.5403 225.918 58.6511 227.973 60.8481 229.166C62.1189 227.26 64.4667 225.371 64.5098 223.433C64.8544 211.403 64.6821 199.373 64.6821 186.647H88.8059V221.593H105.843C105.843 214.303 105.843 207.061 105.843 199.82C105.843 195.396 106.102 190.955 105.843 186.531C105.542 181.494 108.062 179.455 114.868 179.82C122.429 180.234 130.053 179.919 138.82 179.919V220.185H183.384C183.578 217.153 183.858 214.518 183.858 211.883C183.858 184.808 183.837 157.732 183.858 130.64C183.858 126.944 183.751 123.233 184.267 119.571C186.012 107.358 196.696 101.029 213.819 101.841C230.232 102.603 238.611 109.049 238.675 121.443C238.826 145.569 238.912 169.696 238.611 193.822C238.546 199.389 240.183 201.842 248.153 201.461C258.987 200.947 269.993 200.715 280.784 201.51C290.886 202.239 294.009 199.075 294.785 191.933C298.511 157.367 302.776 122.835 306.567 88.2861C307.708 77.996 307.945 67.6396 308.591 57.3661C310.228 76.9521 311.198 96.5878 313.675 116.107C316.216 136.174 319.555 156.207 323.798 176.092C327.955 195.611 333.685 214.916 338.725 234.319C339.543 234.253 340.34 234.17 341.159 234.104V212.894C346.759 212.496 351.433 212.182 357.291 211.767V114.533H403.321V201.295H430.46C430.46 211.353 430.223 220.649 430.632 229.928C430.74 232.381 432.829 234.8 434.014 237.219C435.285 234.85 437.632 232.497 437.632 230.127C437.869 196.887 437.805 163.664 437.805 130.424C437.805 117.847 438.86 117.218 456.479 120.25C456.479 123.68 456.479 127.309 456.479 130.938C456.479 153.341 456.307 175.744 456.673 198.13C456.716 200.914 459.904 203.615 461.261 206.465C462.209 208.437 462.941 210.574 463.006 212.662C463.199 220.5 463.092 228.354 463.092 236.871H485.385V198.959H500.161C500.354 201.693 500.678 204.327 500.699 206.962C500.785 215.33 500.484 223.714 500.958 232.066C501.065 233.872 503.779 235.579 505.287 237.335C506.902 235.678 508.992 234.17 509.961 232.314C510.736 230.823 510.133 228.917 510.133 227.194C510.133 164.178 510.262 101.161 509.961 38.1281C509.918 31.1189 511.921 25.3359 517.521 19.818C523.789 13.6704 529.217 7.0092 535.506 0C543.756 9.16333 551.682 17.4816 558.79 26.1809C560.793 28.6333 561.095 32.2291 561.095 35.2945C561.246 70.2577 561.181 105.204 561.181 140.167C561.181 143.051 561.181 145.934 561.181 149.463H597.905V221.759H623.365C623.365 218.627 623.365 215.529 623.365 212.43C623.365 162.454 623.472 112.479 623.214 62.5028C623.192 57.2169 625.432 54.6983 631.291 51.6493C647.812 43.0163 662.824 42.9003 679.28 51.7653C684.816 54.748 686.905 57.2169 686.884 62.1383C686.711 112.843 686.776 163.565 686.776 214.269C686.776 221.163 691.335 224.609 700.453 224.609C713.219 224.609 719.602 219.644 719.602 209.713C719.602 186.564 719.602 163.432 719.602 140.283C719.602 137.632 719.602 134.981 719.602 131.717H739.956V203.582C747.129 203.913 753.396 204.195 761.172 204.543C761.172 210.044 761.129 215.595 761.172 221.146C761.215 224.261 760.375 228.503 766.901 227.376C769.12 226.995 771.769 223.532 771.899 221.378C772.523 211.552 772.265 201.693 772.437 191.85C772.48 189.232 772.911 186.597 773.191 183.846H802.807V235.927C806.297 236.225 808.752 236.407 811.186 236.672C818.509 237.468 821.352 235.43 821.223 229.415C820.792 209.729 821.051 190.027 821.051 170.325C821.051 167.674 821.051 165.023 821.051 161.924H847.393V212.049H861.415C862.04 209.597 862.665 207.244 863.354 204.543H914.682C915.134 209.282 915.565 213.805 916.06 219.108H939.926C940.464 224.394 940.938 228.901 941.39 233.275C954.938 234.966 955.132 234.866 955.154 225.023C955.175 210.541 955.154 196.075 955.154 181.096H979.751V221.328H1008.57V176.224H1031.96V138.892C1037.56 135.992 1041.48 133.954 1045.4 131.932C1055.7 126.911 1062.89 133.523 1072.37 138.378C1072.37 156.804 1072.37 176.688 1072.37 196.572C1072.37 207.658 1072.63 218.727 1072.31 229.796C1072.18 234.468 1073.94 236.473 1080.38 236.374C1102.4 236.026 1098.95 238.031 1099.06 222.472C1099.27 194.667 1099.1 166.845 1099.1 139.024C1099.1 136.108 1099.1 133.191 1099.1 129.712H1113.42C1113.42 139.488 1113.42 149.231 1113.42 158.991C1113.42 180.151 1113.66 201.328 1113.19 222.488C1113.06 228.785 1115.97 230.359 1123.72 230.342C1149.03 230.293 1149.01 230.492 1149.05 211.138C1149.09 185.288 1149.18 159.455 1149.29 133.606C1149.29 131.932 1149.65 130.258 1149.93 127.839H1192.39V92.3955H1247.55C1247.55 95.1627 1247.55 97.9962 1247.55 100.83C1247.55 143.664 1247.74 186.498 1247.35 229.332C1247.29 235.894 1249.79 238.114 1258.19 237.617C1266.42 237.136 1274.73 237.517 1284.01 237.517V214.087C1285.52 213.225 1285.97 212.728 1286.51 212.679C1296.23 211.839 1301.09 207.558 1301.09 199.837C1301.09 164.393 1301.09 128.933 1301.09 93.4891C1301.09 90.3574 1301.09 87.2422 1301.09 83.7458H1346.46V170.59C1356.06 170.938 1364.48 171.253 1373.87 171.601C1373.87 190.425 1373.87 208.586 1373.87 226.73C1373.87 229.199 1373.59 231.685 1374.09 234.104C1374.31 235.214 1376.03 236.142 1377.08 237.153C1378.46 236.109 1380.55 235.231 1381.03 233.971C1381.74 232.149 1381.33 230.077 1381.33 228.106C1381.33 184.526 1381.33 140.963 1381.35 97.3831C1381.35 94.9307 1381.35 92.4949 1381.35 89.4626H1399.29C1399.48 92.4286 1399.85 95.2953 1399.85 98.1619C1399.92 121.542 1399.79 144.94 1400.13 168.32C1400.17 170.988 1403.08 173.573 1404.29 176.29C1405.26 178.478 1406.23 180.814 1406.25 183.084C1406.4 200.781 1406.33 218.462 1406.33 236.821H1428.89V118.079H1444.14C1444.14 134.036 1444.14 149.48 1444.14 164.923C1444.14 186.829 1444.03 208.735 1444.37 230.641C1444.42 232.861 1447.26 235.065 1448.81 237.269C1450.32 235.048 1453.12 232.861 1453.14 230.624C1453.46 207.492 1453.33 184.377 1453.33 160.234H1505.26V133.539C1514.27 133.539 1522.15 133.539 1530.06 133.539C1538.84 133.539 1543.24 130.264 1543.26 123.713C1543.26 91.9647 1543.26 60.1996 1543.26 28.4511C1543.26 27.2414 1543.26 26.0318 1543.26 24.8222C1543.78 24.7393 1544.31 24.6565 1544.83 24.5736C1549.96 38.592 1555.82 52.4944 1559.93 66.6785C1562.97 77.1178 1565.06 87.9215 1565.23 98.5928C1565.85 135.263 1565.44 171.949 1565.47 208.636C1565.47 211.038 1565.72 213.441 1565.9 216.308H1599.93V45.2698H1629.78V100.333C1637.58 100.647 1644.13 100.913 1651.95 101.227V122.736H1674.09V63.3148C1681.2 61.2435 1683.24 62.8839 1683.13 67.623C1682.88 78.9073 1683.05 90.1917 1683.05 102.454H1713.91C1714.15 106.215 1714.47 109.065 1714.47 111.899C1714.47 149.811 1714.37 187.724 1714.39 225.637C1714.39 237.633 1714.54 237.633 1732.89 235.91C1732.89 227.426 1732.89 218.677 1732.89 209.945C1732.78 169.58 1732.82 129.214 1732.39 88.8495C1732.33 82.5694 1734.18 80.1335 1742.99 80.4649C1762.12 81.194 1759.38 78.6422 1759.53 93.7045C1759.66 106.182 1759.55 118.659 1759.55 131.551H1773.53C1774.01 129.082 1774.44 126.746 1775 123.813H1826.71C1827.08 128.585 1827.42 133.142 1827.83 138.477H1852.47V233.723H1866.8C1866.8 230.956 1866.8 228.122 1866.8 225.305C1866.8 186.166 1866.99 147.011 1866.6 107.872C1866.54 101.343 1868.84 98.7419 1877.33 99.7361C1879.83 100.034 1882.46 99.9349 1885 99.7527C1890.43 99.355 1892.34 101.128 1892.26 105.287C1892.02 116.837 1892.17 128.386 1892.17 140.532H1919.89V272H1920Z" fill="#0071BC"/>
</svg>
