<svg width="33" height="32" viewBox="0 0 33 32" fill="none" xmlns="http://www.w3.org/2000/svg">
<path d="M27.5145 0.0075C20.5045 -0.0025 13.4845 -0.0025 6.47449 0.0075C3.02449 0.0075 0.994486 2.0775 0.984486 5.5575C0.974486 9.0175 0.984486 12.4775 0.984486 15.9375C0.984486 19.3975 0.974486 23.0275 0.984486 26.5775C0.994486 29.8675 3.06449 31.9575 6.36449 31.9675C13.4245 31.9875 20.4745 31.9875 27.5345 31.9675C30.9045 31.9575 32.9645 29.8575 32.9645 26.4975C32.9645 19.4875 32.9645 12.4875 32.9645 5.4775C32.9645 2.1275 30.8645 0.0175 27.5045 0.0075H27.5145ZM27.2145 20.7375C27.1745 23.6375 25.1145 25.9975 22.2245 26.1375C18.7245 26.3075 15.2145 26.3175 11.7145 26.1475C8.85449 26.0075 6.81449 23.5875 6.76449 20.6975C6.73449 19.1375 6.76449 17.5775 6.76449 16.0175C6.76449 14.4175 6.73449 12.8075 6.76449 11.2075C6.84449 8.1875 9.17449 5.8475 12.1845 5.7975C15.3545 5.7475 18.5245 5.7575 21.6845 5.7975C24.7945 5.8375 27.1445 8.1375 27.1945 11.2375C27.2545 14.4075 27.2445 17.5675 27.1945 20.7275L27.2145 20.7375Z" fill="black" fill-opacity="0.6"/>
<path d="M27.2045 11.2475C27.1445 8.14754 24.8045 5.84754 21.6945 5.80754C18.5245 5.76754 15.3545 5.75754 12.1945 5.80754C9.17449 5.84754 6.84449 8.18754 6.77449 11.2175C6.73449 12.8175 6.77449 14.4275 6.77449 16.0275C6.77449 17.5875 6.75449 19.1475 6.77449 20.7075C6.82449 23.5975 8.86449 26.0175 11.7245 26.1575C15.2245 26.3275 18.7345 26.3175 22.2345 26.1475C25.1245 26.0075 27.1845 23.6475 27.2245 20.7475C27.2745 17.5875 27.2745 14.4175 27.2245 11.2575L27.2045 11.2475ZM25.3845 20.4875C25.3545 22.7375 23.9545 24.3175 21.7345 24.3675C18.5245 24.4375 15.3145 24.4375 12.1045 24.3575C10.0845 24.3075 8.61449 22.7775 8.58449 20.7575C8.52449 17.5875 8.52449 14.4275 8.58449 11.2575C8.62449 9.17754 10.1445 7.65754 12.2245 7.61754C15.3945 7.55754 18.5645 7.55754 21.7345 7.61754C23.8845 7.66754 25.3445 9.21754 25.3845 11.3675C25.4145 12.9275 25.3845 14.4875 25.3845 16.0575C25.3845 17.5375 25.3945 19.0075 25.3845 20.4875Z" fill="white"/>
<path d="M25.3845 11.3774C25.3345 9.22744 23.8845 7.67744 21.7345 7.62744C18.5645 7.55744 15.3945 7.56744 12.2245 7.62744C10.1445 7.66744 8.62449 9.18744 8.58449 11.2674C8.52449 14.4274 8.53449 17.5974 8.58449 20.7674C8.62449 22.7874 10.0845 24.3174 12.1045 24.3674C15.3145 24.4474 18.5245 24.4474 21.7345 24.3774C23.9445 24.3274 25.3545 22.7474 25.3845 20.4974C25.4045 19.0174 25.3845 17.5474 25.3845 16.0674C25.3845 14.5074 25.4145 12.9474 25.3845 11.3774ZM16.9745 21.5774C13.9045 21.5774 11.4145 19.0874 11.4045 16.0174C11.4045 12.9974 13.9245 10.4374 16.9545 10.4074C19.9445 10.3774 22.5645 12.9374 22.5945 15.9374C22.6245 19.0474 20.1045 21.5674 16.9745 21.5674V21.5774ZM23.5645 10.5274C23.5145 10.9574 22.8845 11.5574 22.4345 11.6374C22.1245 11.6974 21.3945 11.0074 21.3645 10.6274C21.3345 10.1774 21.8645 9.68744 22.1545 9.20744C22.3345 9.20744 22.5045 9.18743 22.6845 9.18743C23.0045 9.63743 23.6045 10.1174 23.5645 10.5374V10.5274Z" fill="black" fill-opacity="0.6"/>
<path d="M23.5645 10.5275C23.5145 10.9575 22.8845 11.5575 22.4345 11.6375C22.1245 11.6975 21.3945 11.0075 21.3645 10.6275C21.3345 10.1775 21.8645 9.6875 22.1545 9.2075C22.3345 9.2075 22.5045 9.1875 22.6845 9.1875C23.0045 9.6375 23.6045 10.1175 23.5645 10.5375V10.5275Z" fill="white"/>
<path d="M16.9645 10.4075C13.9345 10.4475 11.4045 12.9975 11.4145 16.0175C11.4145 19.0875 13.9145 21.5775 16.9845 21.5775C20.1145 21.5775 22.6345 19.0475 22.6045 15.9475C22.5745 12.9475 19.9645 10.3775 16.9645 10.4175V10.4075ZM16.9545 19.6875C14.9645 19.6575 13.3445 18.0175 13.3545 16.0275C13.3545 13.9575 15.0245 12.3375 17.0845 12.3975C19.1045 12.4575 20.6745 14.0975 20.6245 16.0875C20.5745 18.0875 18.9145 19.7075 16.9545 19.6775V19.6875Z" fill="white"/>
<path d="M20.6245 16.0976C20.5745 18.0976 18.9145 19.7176 16.9545 19.6876C14.9645 19.6576 13.3445 18.0176 13.3545 16.0276C13.3545 13.9576 15.0245 12.3376 17.0845 12.3976C19.1045 12.4576 20.6745 14.0976 20.6245 16.0876V16.0976Z" fill="black" fill-opacity="0.6"/>
</svg>
