<svg width="33" height="32" viewBox="0 0 33 32" fill="none" xmlns="http://www.w3.org/2000/svg">
<path d="M32.9478 5.35565C32.9478 2.13565 30.8578 0.0256478 27.6378 0.0156478C20.5478 -0.00435225 13.4578 -0.00435225 6.35781 0.0256478C3.02781 0.0356478 0.987811 2.10565 0.977811 5.40565C0.957811 8.90565 0.977811 12.4056 0.977811 15.9056C0.977811 19.4856 0.947811 23.0756 0.977811 26.6656C1.00781 29.8656 3.11781 31.9556 6.33781 31.9656C13.3878 31.9856 20.4478 31.9856 27.4978 31.9656C30.8278 31.9656 32.9478 29.8256 32.9578 26.4956C32.9678 19.4556 32.9678 12.4056 32.9578 5.36565L32.9478 5.35565ZM11.6078 24.7756H8.16781V12.7856H11.6078V24.7756ZM9.88781 10.9956C8.68781 11.0056 7.71781 10.0656 7.67781 8.85565C7.63781 7.66565 8.58781 6.64565 9.76781 6.60565C11.0178 6.56565 12.0178 7.53565 12.0278 8.80565C12.0278 9.99565 11.0678 10.9756 9.87781 10.9956H9.88781ZM25.8878 24.8156H22.2778C22.2778 23.4556 22.2778 22.0856 22.2778 20.7156C22.2778 19.9156 22.3078 19.1056 22.2578 18.3156C22.1578 16.8156 21.1778 15.8756 19.8478 15.9156C18.5178 15.9556 17.4678 16.9456 17.4178 18.3456C17.3578 20.0756 17.3978 21.8056 17.3978 23.5356C17.3978 23.9456 17.3978 24.3556 17.3978 24.8256H13.8678V12.8156H17.2978C17.3478 13.1856 17.3978 13.5456 17.4778 14.1756C18.6778 12.8256 20.1278 12.5056 21.7278 12.5856C24.1678 12.7156 25.8478 14.3656 25.8778 16.7956C25.9178 19.4456 25.8878 22.0856 25.8878 24.8056V24.8156Z" fill="black" fill-opacity="0.6"/>
<path d="M12.0278 8.8157C12.0278 10.0057 11.0678 10.9857 9.87781 11.0057C8.67781 11.0157 7.70781 10.0757 7.66781 8.8657C7.62781 7.6757 8.57781 6.6557 9.75781 6.6157C11.0078 6.5757 12.0078 7.5457 12.0178 8.8157H12.0278Z" fill="white"/>
<path d="M25.8878 24.8157H22.2778C22.2778 23.4557 22.2778 22.0857 22.2778 20.7157C22.2778 19.9157 22.3078 19.1057 22.2578 18.3157C22.1578 16.8157 21.1778 15.8757 19.8478 15.9157C18.5178 15.9557 17.4678 16.9457 17.4178 18.3457C17.3578 20.0757 17.3978 21.8057 17.3978 23.5357C17.3978 23.9457 17.3978 24.3557 17.3978 24.8257H13.8678V12.8157H17.2978C17.3478 13.1857 17.3978 13.5457 17.4778 14.1757C18.6778 12.8257 20.1278 12.5057 21.7278 12.5857C24.1678 12.7157 25.8478 14.3657 25.8778 16.7957C25.9178 19.4457 25.8878 22.0857 25.8878 24.8057V24.8157Z" fill="white"/>
<path d="M11.6078 12.7856H8.16782V24.7756H11.6078V12.7856Z" fill="white"/>
</svg>
