<svg width="18" height="24" viewBox="0 0 18 24" fill="none" xmlns="http://www.w3.org/2000/svg">
<path opacity="0.6" d="M8.60048 24C4.7754 20.2049 1.27282 16.2223 0.192796 10.7247C-0.752225 5.9096 1.84283 1.70951 6.53044 0.306976C11.098 -1.06555 16.4382 2.33952 17.2107 7.03462C17.7432 10.2597 16.7907 13.1248 15.2981 15.8623C13.6631 18.8624 11.4655 21.4349 8.96799 23.76C8.88549 23.8425 8.76549 23.8875 8.59298 24H8.60048ZM8.68298 12.9673C11.0755 12.9673 12.9956 11.1372 12.9956 8.73716C12.9956 5.9321 10.648 4.38707 8.75049 4.44707C6.25293 4.52957 4.39289 6.26961 4.40039 8.71466C4.40039 11.0772 6.30543 12.9598 8.68298 12.9673Z" fill="black"/>
</svg>
