<svg width="33" height="32" viewBox="0 0 33 32" fill="none" xmlns="http://www.w3.org/2000/svg">
<path d="M32.9592 16.0362C32.9592 12.4862 32.9592 8.94622 32.9592 5.39622C32.9492 2.12622 30.8692 0.0262207 27.5692 0.0162207C20.4692 -0.0037793 13.3692 -0.0037793 6.2692 0.0162207C3.0592 0.0262207 0.979203 2.13622 0.979203 5.36622C0.959203 12.4562 0.959203 19.5462 0.979203 26.6362C0.979203 29.8562 3.07919 31.9562 6.29919 31.9662C13.3992 31.9862 20.4992 31.9862 27.5992 31.9662C30.8692 31.9562 32.9592 29.8162 32.9692 26.5362C32.9692 23.0362 32.9692 19.5362 32.9692 16.0262L32.9592 16.0362ZM25.6292 10.2562C25.3292 12.8462 24.8992 15.4362 24.5192 18.0162C24.2892 19.5562 24.0392 21.0962 23.7692 22.6362C23.4092 24.6762 22.3692 25.1562 20.6692 24.0262C18.9492 22.8762 17.2792 21.6662 15.5792 20.4762C14.6692 19.8462 14.6392 19.1562 15.4392 18.4062C17.0092 16.9362 18.5792 15.4662 20.1292 13.9762C20.5392 13.5762 20.8792 13.1162 21.2592 12.6862C21.1692 12.5562 21.0792 12.4262 20.9992 12.2962C20.4992 12.5462 19.9692 12.7362 19.5092 13.0362C17.6092 14.2962 15.6592 15.4862 13.8592 16.8862C12.0592 18.2862 10.2592 18.6162 8.2292 17.5862C7.5792 17.2562 6.9492 16.8862 6.3092 16.5362C6.9392 16.1062 7.5092 15.5562 8.1992 15.2462C12.4292 13.3462 16.6892 11.4862 20.9392 9.63622C21.8292 9.25622 22.7492 8.94622 23.6792 8.67622C25.3992 8.18622 25.8392 8.49622 25.6392 10.2462L25.6292 10.2562Z" fill="black" fill-opacity="0.6"/>
<path d="M25.6292 10.2562C25.3292 12.8462 24.8992 15.4362 24.5192 18.0162C24.2892 19.5562 24.0392 21.0962 23.7692 22.6362C23.4092 24.6762 22.3692 25.1562 20.6692 24.0262C18.9492 22.8762 17.2792 21.6662 15.5792 20.4762C14.6692 19.8462 14.6392 19.1562 15.4392 18.4062C17.0092 16.9362 18.5792 15.4662 20.1292 13.9762C20.5392 13.5762 20.8792 13.1162 21.2592 12.6862C21.1692 12.5562 21.0792 12.4262 20.9992 12.2962C20.4992 12.5462 19.9692 12.7362 19.5092 13.0362C17.6092 14.2962 15.6592 15.4862 13.8592 16.8862C12.0592 18.2862 10.2592 18.6162 8.2292 17.5862C7.5792 17.2562 6.9492 16.8862 6.3092 16.5362C6.9392 16.1062 7.5092 15.5562 8.1992 15.2462C12.4292 13.3462 16.6892 11.4862 20.9392 9.63624C21.8292 9.25624 22.7492 8.94624 23.6792 8.67624C25.3992 8.18624 25.8392 8.49624 25.6392 10.2462L25.6292 10.2562Z" fill="white"/>
</svg>
