<svg width="30" height="32" viewBox="0 0 30 32" fill="none" xmlns="http://www.w3.org/2000/svg">
<g clip-path="url(#clip0_22_15)">
<path d="M27.4364 9.53779L20.3666 2.25773C17.465 -0.760267 12.675 -0.760267 9.77339 2.25773L2.7266 9.53779C1.39093 10.9201 0.630981 12.7631 0.630981 14.6753V24.6047C0.630981 28.6825 3.94712 32 8.02321 32H22.1398C26.2159 32 29.509 28.6825 29.509 24.6047V14.6753C29.509 12.7631 28.7721 10.9201 27.4364 9.53779ZM22.6234 25.1346H18.8697L18.5934 23.4989C17.442 24.766 15.9221 25.4111 14.0567 25.4111C12.7902 25.4111 11.6618 25.1116 10.6715 24.5126C9.68128 23.9136 8.92133 23.0842 8.36864 22.0014C7.81595 20.9186 7.53961 19.6976 7.53961 18.3153C7.53961 16.933 7.81595 15.712 8.36864 14.6292C8.92133 13.5464 9.68128 12.7171 10.6715 12.1181C11.6618 11.5191 12.7902 11.2196 14.0567 11.2196C14.9779 11.2196 15.83 11.3808 16.5899 11.7034C17.3498 12.0259 18.0177 12.4867 18.5704 13.1087L18.8467 11.496H22.6004V25.1577L22.6234 25.1346Z" fill="#0071BC"/>
<path d="M15.07 14.8366C14.1028 14.8366 13.3428 15.1591 12.7441 15.8042C12.1454 16.4492 11.846 17.2786 11.846 18.2923C11.846 19.306 12.1454 20.1354 12.7441 20.7804C13.3428 21.4255 14.1258 21.748 15.07 21.748C16.0142 21.748 16.8202 21.4255 17.4189 20.8035C18.0177 20.1814 18.3401 19.329 18.3401 18.2923C18.3401 17.2556 18.0407 16.4262 17.4189 15.7811C16.8202 15.1361 16.0372 14.8366 15.07 14.8366Z" fill="#0071BC"/>
</g>
<defs>
<clipPath id="clip0_22_15">
<rect width="28.878" height="32" fill="white" transform="translate(0.630981)"/>
</clipPath>
</defs>
</svg>
