<svg width="33" height="32" viewBox="0 0 33 32" fill="none" xmlns="http://www.w3.org/2000/svg">
<path d="M32.9498 5.49646C32.9498 2.10646 30.9198 0.0264648 27.5298 0.0164648C20.4698 -0.00353516 13.4197 -0.00353516 6.35975 0.0164648C3.05975 0.0264648 0.979746 2.12646 0.969746 5.39646C0.959746 8.89647 0.969746 12.3965 0.969746 15.9065C0.969746 19.4065 0.959746 22.9165 0.969746 26.4165C0.979746 29.9365 3.02975 31.9765 6.57975 31.9765C13.5097 31.9765 20.4398 31.9865 27.3698 31.9765C30.9198 31.9765 32.9498 29.9365 32.9598 26.3965C32.9697 19.4365 32.9598 12.4665 32.9598 5.50646L32.9498 5.49646ZM25.4498 21.5065C22.8998 25.4365 18.0798 26.9865 13.5398 25.6265C12.2698 25.2465 10.7598 25.6665 9.34975 25.7565C8.72975 25.7965 8.10975 25.9565 7.28975 26.0965C7.33975 25.5065 7.34976 25.0965 7.41976 24.6865C7.76976 22.6165 7.84975 20.6465 7.17975 18.5165C5.76975 14.0165 7.99975 9.23647 12.1198 7.02646C16.1198 4.87646 21.2798 5.70646 24.3398 9.00646C27.5698 12.4965 28.0198 17.5365 25.4498 21.4965V21.5065Z" fill="black" fill-opacity="0.6"/>
<path d="M24.3397 9.0064C21.2797 5.7064 16.1297 4.87639 12.1197 7.0264C7.99975 9.2464 5.77974 14.0164 7.17974 18.5164C7.84974 20.6564 7.76975 22.6164 7.41975 24.6864C7.34975 25.0964 7.33974 25.5064 7.28974 26.0964C8.10974 25.9564 8.71974 25.7964 9.34974 25.7564C10.7497 25.6564 12.2697 25.2464 13.5397 25.6264C18.0797 26.9864 22.8997 25.4364 25.4497 21.5064C28.0197 17.5364 27.5697 12.4964 24.3397 9.0164V9.0064ZM24.0197 20.5764C21.8597 23.9064 17.5897 25.2564 13.8697 23.8664C13.1697 23.6064 12.3397 23.6264 11.5697 23.6364C10.9097 23.6464 10.2498 23.8364 9.38975 23.9764C9.45975 23.4464 9.48974 23.1164 9.53974 22.7964C9.72974 21.5064 9.69975 20.3164 9.13975 19.0264C7.53975 15.3564 8.97974 11.0964 12.3197 8.9264C15.7097 6.7264 20.0297 7.17639 22.8897 10.0264C25.7297 12.8464 26.1897 17.2264 24.0097 20.5964L24.0197 20.5764Z" fill="white"/>
<path d="M22.8997 10.0165C20.0297 7.16649 15.7197 6.72649 12.3297 8.91649C8.98972 11.0865 7.54973 15.3465 9.14973 19.0165C9.71973 20.3165 9.73973 21.4965 9.54973 22.7865C9.49973 23.1065 9.46973 23.4365 9.39973 23.9665C10.2597 23.8265 10.9197 23.6365 11.5797 23.6265C12.3497 23.6165 13.1797 23.5965 13.8797 23.8565C17.5997 25.2465 21.8597 23.8965 24.0297 20.5665C26.2097 17.1965 25.7497 12.8165 22.9097 9.99649L22.8997 10.0165ZM21.2697 20.1065C20.8097 20.5465 20.2497 20.8865 19.8797 21.1665C16.7197 20.5065 14.4897 18.9765 13.0097 16.4365C12.6097 15.7565 12.3097 14.9965 12.0997 14.2365C11.9797 13.7865 12.0197 13.2265 12.1497 12.7565C12.4197 11.8065 13.5097 11.0065 14.0597 11.2565C14.6297 11.5165 15.3197 13.5965 14.8697 14.0865C14.1497 14.8565 14.4697 15.4765 14.9597 16.0765C15.5397 16.7865 16.1997 17.4465 16.8697 18.0765C17.6497 18.8065 18.3797 19.1065 19.2997 18.0765C20.1597 17.1065 20.7897 18.2165 21.4197 18.6365C22.1497 19.1265 21.7297 19.6865 21.2897 20.1065H21.2697Z" fill="black" fill-opacity="0.6"/>
<path d="M21.2698 20.1065C20.8098 20.5465 20.2498 20.8865 19.8798 21.1665C16.7198 20.5065 14.4898 18.9765 13.0098 16.4365C12.6098 15.7565 12.3098 14.9965 12.0998 14.2365C11.9798 13.7865 12.0198 13.2265 12.1498 12.7565C12.4198 11.8065 13.5098 11.0065 14.0598 11.2565C14.6298 11.5165 15.3198 13.5965 14.8698 14.0865C14.1498 14.8565 14.4698 15.4765 14.9598 16.0765C15.5398 16.7865 16.1998 17.4465 16.8698 18.0765C17.6498 18.8065 18.3797 19.1065 19.2997 18.0765C20.1597 17.1065 20.7898 18.2165 21.4198 18.6365C22.1498 19.1265 21.7298 19.6865 21.2898 20.1065H21.2698Z" fill="white"/>
</svg>
